<svg xmlns="http://www.w3.org/2000/svg" xmlns:xlink="http://www.w3.org/1999/xlink" width="54" height="54" viewBox="0 0 54 54">
  <defs>
    <path id="forum_24px-a" d="M53.3333333,16 L50.6666667,16 L50.6666667,37.3333333 C50.6666667,38.8 49.4666667,40 48,40 L16,40 L16,42.6666667 C16,45.6 18.4,48 21.3333333,48 L48,48 L58.6666667,58.6666667 L58.6666667,21.3333333 C58.6666667,18.4 56.2666667,16 53.3333333,16 Z M45.3333333,29.3333333 L45.3333333,10.6666667 C45.3333333,7.73333333 42.9333333,5.33333333 40,5.33333333 L10.6666667,5.33333333 C7.73333333,5.33333333 5.33333333,7.73333333 5.33333333,10.6666667 L5.33333333,45.3333333 L16,34.6666667 L40,34.6666667 C42.9333333,34.6666667 45.3333333,32.2666667 45.3333333,29.3333333 Z"/>
  </defs>
  <g fill="none" fill-rule="evenodd" transform="translate(-5 -5)">
    <mask id="forum_24px-b" fill="#fff">
      <use xlink:href="#forum_24px-a"/>
    </mask>
    <g fill="#FFF" mask="url(#forum_24px-b)">
      <rect width="64" height="64"/>
    </g>
  </g>
</svg>
