<svg xmlns="http://www.w3.org/2000/svg" xmlns:xlink="http://www.w3.org/1999/xlink" width="64" height="62" viewBox="0 0 64 62">
  <defs>
    <path id="thumbs_up_down_24px-a" d="M26.83989,13.3333333 L15.5332233,13.3333333 L17.2932233,4.85333333 C17.5065566,3.86666667 17.1865566,2.85333333 16.4932233,2.13333333 C15.31989,0.96 13.4265566,0.96 12.27989,2.13333333 L1.61322329,12.8 C0.573223286,13.7866667 0.0132232857,15.1466667 0.0132232857,16.56 L0.0132232857,32 C0.0132232857,34.9333333 2.41322329,37.3333333 5.34655662,37.3333333 L21.1332233,37.3333333 C23.2665566,37.3333333 25.1865566,36.0533333 26.03989,34.1066667 L31.7465566,20.7733333 C33.23989,17.2533333 30.6532233,13.3333333 26.83989,13.3333333 Z M58.67989,26.6666667 L42.8932233,26.6666667 C40.75989,26.6666667 38.83989,27.9466667 37.9865566,29.8933333 L32.27989,43.2266667 C30.7865566,46.7466667 33.3465566,50.6666667 37.1865566,50.6666667 L48.4932233,50.6666667 L46.7332233,59.1466667 C46.51989,60.1333333 46.83989,61.1466667 47.5332233,61.8666667 C48.7065566,63.04 50.59989,63.04 51.7465566,61.8666667 L62.4132233,51.2 C63.4265566,50.1866667 63.9865566,48.8533333 63.9865566,47.44 L63.9865566,32 C64.0132233,29.0666667 61.6132233,26.6666667 58.67989,26.6666667 Z"/>
  </defs>
  <g fill="none" fill-rule="evenodd" transform="translate(0 -1)">
    <mask id="thumbs_up_down_24px-b" fill="#fff">
      <use xlink:href="#thumbs_up_down_24px-a"/>
    </mask>
    <g fill="#FFF" mask="url(#thumbs_up_down_24px-b)">
      <rect width="64" height="64"/>
    </g>
  </g>
</svg>
