<svg xmlns="http://www.w3.org/2000/svg" xmlns:xlink="http://www.w3.org/1999/xlink" width="60" height="40" viewBox="0 0 60 40">
  <defs>
    <path id="visibility_24px-a" d="M32,12 C18.6666667,12 7.28,20.2933333 2.66666667,32 C7.28,43.7066667 18.6666667,52 32,52 C45.3333333,52 56.72,43.7066667 61.3333333,32 C56.72,20.2933333 45.3333333,12 32,12 Z M32,45.3333333 C24.64,45.3333333 18.6666667,39.36 18.6666667,32 C18.6666667,24.64 24.64,18.6666667 32,18.6666667 C39.36,18.6666667 45.3333333,24.64 45.3333333,32 C45.3333333,39.36 39.36,45.3333333 32,45.3333333 Z M32,24 C27.5733333,24 24,27.5733333 24,32 C24,36.4266667 27.5733333,40 32,40 C36.4266667,40 40,36.4266667 40,32 C40,27.5733333 36.4266667,24 32,24 Z"/>
  </defs>
  <g fill="none" fill-rule="evenodd" transform="translate(-2 -12)">
    <mask id="visibility_24px-b" fill="#fff">
      <use xlink:href="#visibility_24px-a"/>
    </mask>
    <g fill="#FFF" mask="url(#visibility_24px-b)">
      <rect width="64" height="64"/>
    </g>
  </g>
</svg>
