<svg xmlns="http://www.w3.org/2000/svg" width="200" height="200" viewBox="0 0 200 200">
  <g fill="none" transform="translate(16 16)">
    <path fill="#222829" d="M158.4375,132 L10.5625,132 C4.73728125,132 0,127.258714 0,121.428571 L0,31.5714286 C0,25.7412857 4.73728125,21 10.5625,21 L79.21875,21 L79.21875,26.2857143 L10.5625,26.2857143 C7.64989062,26.2857143 5.28125,28.6563571 5.28125,31.5714286 L5.28125,121.428571 C5.28125,124.343643 7.64989062,126.714286 10.5625,126.714286 L158.4375,126.714286 C161.350109,126.714286 163.71875,124.343643 163.71875,121.428571 L163.71875,31.5714286 C163.71875,28.6563571 161.350109,26.2857143 158.4375,26.2857143 L132.03125,26.2857143 L132.03125,21 L158.4375,21 C164.262719,21 169,25.7412857 169,31.5714286 L169,121.428571 C169,127.258714 164.262719,132 158.4375,132 Z"/>
    <polygon fill="#222829" points="90.3 166 85 166 85 95 138 95 138 100.259 90.3 100.259"/>
    <polygon fill="#222829" points="127 98 121.75 98 121.75 69.231 85 69.231 85 64 127 64"/>
    <rect width="169" height="5" y="164" fill="#222829"/>
    <polygon fill="#222829" points="63 166 57.727 166 57.727 153.143 10.273 153.143 10.273 166 5 166 5 148 63 148"/>
    <rect width="5" height="106" x="21" y="24" fill="#222829"/>
    <rect width="5" height="106" x="142" y="24" fill="#222829"/>
    <rect width="5" height="21" x="154" y="66" fill="#222829"/>
    <path fill="#222829" d="M55.5,81 L43.9745556,69.2542631 L32,69.2542631 L32,32 L79,32 L79,69.2542631 L67.0254444,69.2542631 L55.5,81 Z M37.2222222,63.9322255 L46.1365556,63.9322255 L55.5,73.4746389 L64.8634444,63.9322255 L73.7777778,63.9322255 L73.7777778,37.3220376 L37.2222222,37.3220376 L37.2222222,63.9322255 Z"/>
    <rect width="27" height="5" x="42" y="42" fill="#222829"/>
    <rect width="27" height="5" x="42" y="53" fill="#222829"/>
    <path fill="#33691E" d="M106,59 L104.144125,57.1389756 C103.361875,56.3545552 85,37.7495762 85,21.0582672 C85,9.4472651 94.421125,0 106,0 C117.578875,0 127,9.4472651 127,21.0582672 C127,37.7495762 108.638125,56.3545552 107.855875,57.1389756 L106,59 Z M106,5.26456679 C97.313875,5.26456679 90.25,12.3480414 90.25,21.0582672 C90.25,32.7008566 101.4745,46.3808334 106,51.4242884 C110.5255,46.3808334 121.75,32.7008566 121.75,21.0582672 C121.75,12.3480414 114.686125,5.26456679 106,5.26456679 Z"/>
    <path fill="#33691E" d="M106,32 C99.9335,32 95,27.0665 95,21 C95,14.9335 99.9335,10 106,10 C112.0665,10 117,14.9335 117,21 C117,27.0665 112.0665,32 106,32 Z M106,15.5 C102.96675,15.5 100.5,17.96675 100.5,21 C100.5,24.03325 102.96675,26.5 106,26.5 C109.03325,26.5 111.5,24.03325 111.5,21 C111.5,17.96675 109.03325,15.5 106,15.5 Z"/>
    <rect width="5" height="5" x="10" y="74" fill="#222829"/>
    <rect width="5" height="5" x="10" y="64" fill="#222829"/>
    <rect width="5" height="5" x="10" y="85" fill="#222829"/>
    <polygon fill="#222829" points="164 166 158.667 166 158.667 147.333 105.333 147.333 105.333 166 100 166 100 142 164 142"/>
    <polygon fill="#222829" points="79 167 73.778 167 73.778 90.29 37.222 90.29 37.222 151.129 32 151.129 32 85 79 85"/>
    <rect width="5" height="5" x="90" y="74" fill="#222829"/>
    <rect width="5" height="5" x="100" y="74" fill="#222829"/>
    <rect width="5" height="5" x="90" y="85" fill="#222829"/>
    <rect width="5" height="5" x="100" y="85" fill="#222829"/>
    <rect width="5" height="5" x="111" y="74" fill="#222829"/>
    <rect width="5" height="5" x="111" y="85" fill="#222829"/>
    <rect width="32" height="5" x="95" y="106" fill="#222829"/>
    <rect width="32" height="5" x="95" y="116" fill="#222829"/>
    <rect width="58" height="5" x="103" y="154" fill="#222829"/>
    <rect width="5" height="5" x="42" y="95" fill="#222829"/>
    <rect width="5" height="5" x="53" y="95" fill="#222829"/>
    <rect width="5" height="5" x="64" y="95" fill="#222829"/>
    <rect width="5" height="5" x="42" y="106" fill="#222829"/>
    <rect width="5" height="5" x="53" y="106" fill="#222829"/>
    <rect width="5" height="5" x="64" y="106" fill="#222829"/>
    <rect width="5" height="5" x="42" y="116" fill="#222829"/>
    <rect width="5" height="5" x="53" y="116" fill="#222829"/>
    <rect width="5" height="5" x="64" y="116" fill="#222829"/>
    <rect width="5" height="15" x="122" y="129" fill="#222829"/>
    <rect width="5" height="5" x="42" y="137" fill="#222829"/>
    <rect width="5" height="5" x="53" y="137" fill="#222829"/>
    <rect width="5" height="5" x="64" y="137" fill="#222829"/>
    <rect width="5" height="10" x="116" y="156" fill="#222829"/>
    <rect width="5" height="10" x="142" y="156" fill="#222829"/>
    <rect width="5" height="8" x="47" y="159" fill="#222829"/>
    <rect width="5" height="8" x="37" y="159" fill="#222829"/>
    <rect width="5" height="8" x="27" y="159" fill="#222829"/>
    <rect width="5" height="8" x="15" y="159" fill="#222829"/>
  </g>
</svg>
