<?xml version="1.0" encoding="iso-8859-1"?>
<!-- Generator: Adobe Illustrator 17.0.0, SVG Export Plug-In . SVG Version: 6.00 Build 0)  -->
<!DOCTYPE svg PUBLIC "-//W3C//DTD SVG 1.1//EN" "http://www.w3.org/Graphics/SVG/1.1/DTD/svg11.dtd">
<svg version="1.1" id="_x34_0_x5F_augmented_x5F_reality_x5F_city"
	 xmlns="http://www.w3.org/2000/svg" xmlns:xlink="http://www.w3.org/1999/xlink" x="0px" y="0px" width="64px" height="64px"
	 viewBox="0 0 64 64" style="enable-background:new 0 0 64 64;" xml:space="preserve">
<g>
	<g>
		<path style="fill:#222829;" d="M60,50H4c-2.206,0-4-1.794-4-4V12c0-2.206,1.794-4,4-4h26v2H4c-1.103,0-2,0.897-2,2v34
			c0,1.103,0.897,2,2,2h56c1.103,0,2-0.897,2-2V12c0-1.103-0.897-2-2-2H50V8h10c2.206,0,4,1.794,4,4v34C64,48.206,62.206,50,60,50z"
			/>
	</g>
	<g>
		<polygon style="fill:#222829;" points="34,63 32,63 32,36 52,36 52,38 34,38 		"/>
	</g>
	<g>
		<polygon style="fill:#222829;" points="48,37 46,37 46,26 32,26 32,24 48,24 		"/>
	</g>
	<g>
		<rect y="62" style="fill:#222829;" width="64" height="2"/>
	</g>
	<g>
		<polygon style="fill:#222829;" points="24,63 22,63 22,58 4,58 4,63 2,63 2,56 24,56 		"/>
	</g>
	<g>
		<rect x="8" y="9" style="fill:#222829;" width="2" height="40"/>
	</g>
	<g>
		<rect x="54" y="9" style="fill:#222829;" width="2" height="40"/>
	</g>
	<g>
		<rect x="58" y="25" style="fill:#222829;" width="2" height="8"/>
	</g>
	<g>
		<path style="fill:#222829;" d="M21,30.414L16.586,26H12V12h18v14h-4.586L21,30.414z M14,24h3.414L21,27.586L24.586,24H28V14H14V24
			z"/>
	</g>
	<g>
		<rect x="16" y="16" style="fill:#222829;" width="10" height="2"/>
	</g>
	<g>
		<rect x="16" y="20" style="fill:#222829;" width="10" height="2"/>
	</g>
	<g>
		<path style="fill:#222829;" d="M40,22.414l-0.707-0.707C38.995,21.409,32,14.341,32,8c0-4.411,3.589-8,8-8s8,3.589,8,8
			c0,6.341-6.995,13.409-7.293,13.707L40,22.414z M40,2c-3.309,0-6,2.691-6,6c0,4.423,4.276,9.62,6,11.536
			C41.724,17.62,46,12.423,46,8C46,4.691,43.309,2,40,2z"/>
	</g>
	<g>
		<path style="fill:#222829;" d="M40,12c-2.206,0-4-1.794-4-4s1.794-4,4-4s4,1.794,4,4S42.206,12,40,12z M40,6c-1.103,0-2,0.897-2,2
			s0.897,2,2,2s2-0.897,2-2S41.103,6,40,6z"/>
	</g>
	<g>
		<rect x="4" y="28" style="fill:#222829;" width="2" height="2"/>
	</g>
	<g>
		<rect x="4" y="24" style="fill:#222829;" width="2" height="2"/>
	</g>
	<g>
		<rect x="4" y="32" style="fill:#222829;" width="2" height="2"/>
	</g>
	<g>
		<polygon style="fill:#222829;" points="62,63 60,63 60,56 40,56 40,63 38,63 38,54 62,54 		"/>
	</g>
	<g>
		<polygon style="fill:#222829;" points="30,63 28,63 28,34 14,34 14,57 12,57 12,32 30,32 		"/>
	</g>
	<g>
		<rect x="34" y="28" style="fill:#222829;" width="2" height="2"/>
	</g>
	<g>
		<rect x="38" y="28" style="fill:#222829;" width="2" height="2"/>
	</g>
	<g>
		<rect x="34" y="32" style="fill:#222829;" width="2" height="2"/>
	</g>
	<g>
		<rect x="38" y="32" style="fill:#222829;" width="2" height="2"/>
	</g>
	<g>
		<rect x="42" y="28" style="fill:#222829;" width="2" height="2"/>
	</g>
	<g>
		<rect x="42" y="32" style="fill:#222829;" width="2" height="2"/>
	</g>
	<g>
		<rect x="36" y="40" style="fill:#222829;" width="12" height="2"/>
	</g>
	<g>
		<rect x="36" y="44" style="fill:#222829;" width="12" height="2"/>
	</g>
	<g>
		<rect x="39" y="58" style="fill:#222829;" width="22" height="2"/>
	</g>
	<g>
		<rect x="16" y="36" style="fill:#222829;" width="2" height="2"/>
	</g>
	<g>
		<rect x="20" y="36" style="fill:#222829;" width="2" height="2"/>
	</g>
	<g>
		<rect x="24" y="36" style="fill:#222829;" width="2" height="2"/>
	</g>
	<g>
		<rect x="16" y="40" style="fill:#222829;" width="2" height="2"/>
	</g>
	<g>
		<rect x="20" y="40" style="fill:#222829;" width="2" height="2"/>
	</g>
	<g>
		<rect x="24" y="40" style="fill:#222829;" width="2" height="2"/>
	</g>
	<g>
		<rect x="16" y="44" style="fill:#222829;" width="2" height="2"/>
	</g>
	<g>
		<rect x="20" y="44" style="fill:#222829;" width="2" height="2"/>
	</g>
	<g>
		<rect x="24" y="44" style="fill:#222829;" width="2" height="2"/>
	</g>
	<g>
		<rect x="46" y="49" style="fill:#222829;" width="2" height="6"/>
	</g>
	<g>
		<rect x="16" y="52" style="fill:#222829;" width="2" height="2"/>
	</g>
	<g>
		<rect x="20" y="52" style="fill:#222829;" width="2" height="2"/>
	</g>
	<g>
		<rect x="24" y="52" style="fill:#222829;" width="2" height="2"/>
	</g>
	<g>
		<rect x="44" y="59" style="fill:#222829;" width="2" height="4"/>
	</g>
	<g>
		<rect x="54" y="59" style="fill:#222829;" width="2" height="4"/>
	</g>
	<g>
		<rect x="18" y="60" style="fill:#222829;" width="2" height="3"/>
	</g>
	<g>
		<rect x="14" y="60" style="fill:#222829;" width="2" height="3"/>
	</g>
	<g>
		<rect x="10" y="60" style="fill:#222829;" width="2" height="3"/>
	</g>
	<g>
		<rect x="6" y="60" style="fill:#222829;" width="2" height="3"/>
	</g>
</g>
</svg>
