<svg enable-background="new 0 0 64 64" height="64" viewBox="0 0 64 64" width="64" xmlns="http://www.w3.org/2000/svg"><g fill="#222829"><path d="m60 50h-56c-2.206 0-4-1.794-4-4v-34c0-2.206 1.794-4 4-4h26v2h-26c-1.103 0-2 .897-2 2v34c0 1.103.897 2 2 2h56c1.103 0 2-.897 2-2v-34c0-1.103-.897-2-2-2h-10v-2h10c2.206 0 4 1.794 4 4v34c0 2.206-1.794 4-4 4z"/><path d="m34 63h-2v-27h20v2h-18z"/><path d="m48 37h-2v-11h-14v-2h16z"/><path d="m0 62h64v2h-64z"/><path d="m24 63h-2v-5h-18v5h-2v-7h22z"/><path d="m8 9h2v40h-2z"/><path d="m54 9h2v40h-2z"/><path d="m58 25h2v8h-2z"/><path d="m21 30.414-4.414-4.414h-4.586v-14h18v14h-4.586zm-7-6.414h3.414l3.586 3.586 3.586-3.586h3.414v-10h-14z"/><path d="m16 16h10v2h-10z"/><path d="m16 20h10v2h-10z"/><path d="m40 22.414-.707-.707c-.298-.298-7.293-7.366-7.293-13.707 0-4.411 3.589-8 8-8s8 3.589 8 8c0 6.341-6.995 13.409-7.293 13.707zm0-20.414c-3.309 0-6 2.691-6 6 0 4.423 4.276 9.62 6 11.536 1.724-1.916 6-7.113 6-11.536 0-3.309-2.691-6-6-6z"/><path d="m40 12c-2.206 0-4-1.794-4-4s1.794-4 4-4 4 1.794 4 4-1.794 4-4 4zm0-6c-1.103 0-2 .897-2 2s.897 2 2 2 2-.897 2-2-.897-2-2-2z"/><path d="m4 28h2v2h-2z"/><path d="m4 24h2v2h-2z"/><path d="m4 32h2v2h-2z"/><path d="m62 63h-2v-7h-20v7h-2v-9h24z"/><path d="m30 63h-2v-29h-14v23h-2v-25h18z"/><path d="m34 28h2v2h-2z"/><path d="m38 28h2v2h-2z"/><path d="m34 32h2v2h-2z"/><path d="m38 32h2v2h-2z"/><path d="m42 28h2v2h-2z"/><path d="m42 32h2v2h-2z"/><path d="m36 40h12v2h-12z"/><path d="m36 44h12v2h-12z"/><path d="m39 58h22v2h-22z"/><path d="m16 36h2v2h-2z"/><path d="m20 36h2v2h-2z"/><path d="m24 36h2v2h-2z"/><path d="m16 40h2v2h-2z"/><path d="m20 40h2v2h-2z"/><path d="m24 40h2v2h-2z"/><path d="m16 44h2v2h-2z"/><path d="m20 44h2v2h-2z"/><path d="m24 44h2v2h-2z"/><path d="m46 49h2v6h-2z"/><path d="m16 52h2v2h-2z"/><path d="m20 52h2v2h-2z"/><path d="m24 52h2v2h-2z"/><path d="m44 59h2v4h-2z"/><path d="m54 59h2v4h-2z"/><path d="m18 60h2v3h-2z"/><path d="m14 60h2v3h-2z"/><path d="m10 60h2v3h-2z"/><path d="m6 60h2v3h-2z"/></g></svg>